<mxfile host="app.diagrams.net" agent="Mozilla/5.0 (Windows NT 10.0; Win64; x64) AppleWebKit/537.36 (KHTML, like Gecko) Chrome/136.0.0.0 Safari/537.36" version="26.2.14">
  <diagram name="PÃ¡gina-1" id="vPNlXih_cMshxV7UQdic">
    <mxGraphModel dx="3204" dy="2348" grid="1" gridSize="10" guides="1" tooltips="1" connect="1" arrows="1" fold="1" page="1" pageScale="1" pageWidth="827" pageHeight="1169" math="0" shadow="0">
      <root>
        <mxCell id="0" />
        <mxCell id="1" parent="0" />
        <mxCell id="0pBIexJM722hcekRti2B-18" value="" style="edgeStyle=orthogonalEdgeStyle;rounded=0;orthogonalLoop=1;jettySize=auto;html=1;" edge="1" parent="1" source="0pBIexJM722hcekRti2B-1" target="0pBIexJM722hcekRti2B-12">
          <mxGeometry relative="1" as="geometry" />
        </mxCell>
        <mxCell id="0pBIexJM722hcekRti2B-1" value="Unidade_atend" style="rounded=0;whiteSpace=wrap;html=1;" vertex="1" parent="1">
          <mxGeometry x="380" y="220" width="120" height="60" as="geometry" />
        </mxCell>
        <mxCell id="0pBIexJM722hcekRti2B-2" value="Laboratorio" style="rounded=0;whiteSpace=wrap;html=1;" vertex="1" parent="1">
          <mxGeometry x="480" y="10" width="120" height="60" as="geometry" />
        </mxCell>
        <mxCell id="0pBIexJM722hcekRti2B-3" value="Estagiario" style="rounded=0;whiteSpace=wrap;html=1;" vertex="1" parent="1">
          <mxGeometry x="1230" y="10" width="120" height="60" as="geometry" />
        </mxCell>
        <mxCell id="0pBIexJM722hcekRti2B-4" value="Efetivo" style="rounded=0;whiteSpace=wrap;html=1;" vertex="1" parent="1">
          <mxGeometry x="860" y="10" width="120" height="60" as="geometry" />
        </mxCell>
        <mxCell id="0pBIexJM722hcekRti2B-25" value="" style="edgeStyle=orthogonalEdgeStyle;rounded=0;orthogonalLoop=1;jettySize=auto;html=1;" edge="1" parent="1" source="0pBIexJM722hcekRti2B-5" target="0pBIexJM722hcekRti2B-21">
          <mxGeometry relative="1" as="geometry" />
        </mxCell>
        <mxCell id="0pBIexJM722hcekRti2B-5" value="Profissional" style="rounded=0;whiteSpace=wrap;html=1;" vertex="1" parent="1">
          <mxGeometry x="1050" y="210" width="120" height="60" as="geometry" />
        </mxCell>
        <mxCell id="0pBIexJM722hcekRti2B-7" value="Contratado" style="rounded=0;whiteSpace=wrap;html=1;" vertex="1" parent="1">
          <mxGeometry x="1050" y="10" width="120" height="60" as="geometry" />
        </mxCell>
        <mxCell id="0pBIexJM722hcekRti2B-8" value="Atendimento" style="rounded=0;whiteSpace=wrap;html=1;" vertex="1" parent="1">
          <mxGeometry x="-370" y="220" width="120" height="60" as="geometry" />
        </mxCell>
        <mxCell id="0pBIexJM722hcekRti2B-9" value="Clinica_especializada" style="rounded=0;whiteSpace=wrap;html=1;" vertex="1" parent="1">
          <mxGeometry x="680" y="10" width="120" height="60" as="geometry" />
        </mxCell>
        <mxCell id="0pBIexJM722hcekRti2B-10" value="Hospital" style="rounded=0;whiteSpace=wrap;html=1;" vertex="1" parent="1">
          <mxGeometry x="280" y="10" width="120" height="60" as="geometry" />
        </mxCell>
        <mxCell id="0pBIexJM722hcekRti2B-11" value="Posto_saude" style="rounded=0;whiteSpace=wrap;html=1;" vertex="1" parent="1">
          <mxGeometry x="80" y="10" width="120" height="60" as="geometry" />
        </mxCell>
        <mxCell id="0pBIexJM722hcekRti2B-13" style="edgeStyle=orthogonalEdgeStyle;rounded=0;orthogonalLoop=1;jettySize=auto;html=1;entryX=0.5;entryY=1;entryDx=0;entryDy=0;" edge="1" parent="1" source="0pBIexJM722hcekRti2B-12" target="0pBIexJM722hcekRti2B-11">
          <mxGeometry relative="1" as="geometry" />
        </mxCell>
        <mxCell id="0pBIexJM722hcekRti2B-14" style="edgeStyle=orthogonalEdgeStyle;rounded=0;orthogonalLoop=1;jettySize=auto;html=1;entryX=0.5;entryY=1;entryDx=0;entryDy=0;" edge="1" parent="1" source="0pBIexJM722hcekRti2B-12" target="0pBIexJM722hcekRti2B-10">
          <mxGeometry relative="1" as="geometry" />
        </mxCell>
        <mxCell id="0pBIexJM722hcekRti2B-16" style="edgeStyle=orthogonalEdgeStyle;rounded=0;orthogonalLoop=1;jettySize=auto;html=1;entryX=0.5;entryY=1;entryDx=0;entryDy=0;" edge="1" parent="1" source="0pBIexJM722hcekRti2B-12" target="0pBIexJM722hcekRti2B-2">
          <mxGeometry relative="1" as="geometry" />
        </mxCell>
        <mxCell id="0pBIexJM722hcekRti2B-17" style="edgeStyle=orthogonalEdgeStyle;rounded=0;orthogonalLoop=1;jettySize=auto;html=1;entryX=0.5;entryY=1;entryDx=0;entryDy=0;" edge="1" parent="1" source="0pBIexJM722hcekRti2B-12" target="0pBIexJM722hcekRti2B-9">
          <mxGeometry relative="1" as="geometry" />
        </mxCell>
        <mxCell id="0pBIexJM722hcekRti2B-12" value="" style="triangle;whiteSpace=wrap;html=1;rotation=90;" vertex="1" parent="1">
          <mxGeometry x="410" y="120" width="60" height="80" as="geometry" />
        </mxCell>
        <mxCell id="0pBIexJM722hcekRti2B-23" style="edgeStyle=orthogonalEdgeStyle;rounded=0;orthogonalLoop=1;jettySize=auto;html=1;entryX=0.5;entryY=1;entryDx=0;entryDy=0;" edge="1" parent="1" source="0pBIexJM722hcekRti2B-21" target="0pBIexJM722hcekRti2B-4">
          <mxGeometry relative="1" as="geometry" />
        </mxCell>
        <mxCell id="0pBIexJM722hcekRti2B-24" style="edgeStyle=orthogonalEdgeStyle;rounded=0;orthogonalLoop=1;jettySize=auto;html=1;entryX=0.5;entryY=1;entryDx=0;entryDy=0;" edge="1" parent="1" source="0pBIexJM722hcekRti2B-21" target="0pBIexJM722hcekRti2B-3">
          <mxGeometry relative="1" as="geometry" />
        </mxCell>
        <mxCell id="0pBIexJM722hcekRti2B-21" value="" style="triangle;whiteSpace=wrap;html=1;rotation=90;" vertex="1" parent="1">
          <mxGeometry x="1080" y="110" width="60" height="80" as="geometry" />
        </mxCell>
        <mxCell id="0pBIexJM722hcekRti2B-58" value="Requisicao" style="rounded=0;whiteSpace=wrap;html=1;" vertex="1" parent="1">
          <mxGeometry x="-230" y="10" width="120" height="60" as="geometry" />
        </mxCell>
        <mxCell id="0pBIexJM722hcekRti2B-59" value="Prescricao" style="rounded=0;whiteSpace=wrap;html=1;shadow=0;" vertex="1" parent="1">
          <mxGeometry x="-510" y="10" width="120" height="60" as="geometry" />
        </mxCell>
        <mxCell id="0pBIexJM722hcekRti2B-60" value="" style="edgeStyle=orthogonalEdgeStyle;rounded=0;orthogonalLoop=1;jettySize=auto;html=1;exitX=0.5;exitY=0;exitDx=0;exitDy=0;entryX=1;entryY=0.5;entryDx=0;entryDy=0;" edge="1" parent="1" target="0pBIexJM722hcekRti2B-65" source="0pBIexJM722hcekRti2B-8">
          <mxGeometry relative="1" as="geometry">
            <mxPoint x="-310" y="210" as="sourcePoint" />
          </mxGeometry>
        </mxCell>
        <mxCell id="0pBIexJM722hcekRti2B-61" value="Encaminhamento" style="rounded=0;whiteSpace=wrap;html=1;" vertex="1" parent="1">
          <mxGeometry x="-370" y="10" width="120" height="60" as="geometry" />
        </mxCell>
        <mxCell id="0pBIexJM722hcekRti2B-62" style="edgeStyle=orthogonalEdgeStyle;rounded=0;orthogonalLoop=1;jettySize=auto;html=1;entryX=0.5;entryY=1;entryDx=0;entryDy=0;" edge="1" parent="1" source="0pBIexJM722hcekRti2B-65" target="0pBIexJM722hcekRti2B-61">
          <mxGeometry relative="1" as="geometry" />
        </mxCell>
        <mxCell id="0pBIexJM722hcekRti2B-63" style="edgeStyle=orthogonalEdgeStyle;rounded=0;orthogonalLoop=1;jettySize=auto;html=1;entryX=0.5;entryY=1;entryDx=0;entryDy=0;" edge="1" parent="1" source="0pBIexJM722hcekRti2B-65" target="0pBIexJM722hcekRti2B-59">
          <mxGeometry relative="1" as="geometry" />
        </mxCell>
        <mxCell id="0pBIexJM722hcekRti2B-64" style="edgeStyle=orthogonalEdgeStyle;rounded=0;orthogonalLoop=1;jettySize=auto;html=1;entryX=0.5;entryY=1;entryDx=0;entryDy=0;" edge="1" parent="1" source="0pBIexJM722hcekRti2B-65" target="0pBIexJM722hcekRti2B-58">
          <mxGeometry relative="1" as="geometry" />
        </mxCell>
        <mxCell id="0pBIexJM722hcekRti2B-65" value="" style="triangle;whiteSpace=wrap;html=1;rotation=90;" vertex="1" parent="1">
          <mxGeometry x="-340" y="110" width="60" height="80" as="geometry" />
        </mxCell>
        <mxCell id="0pBIexJM722hcekRti2B-67" value="Progama_acomp" style="rounded=0;whiteSpace=wrap;html=1;" vertex="1" parent="1">
          <mxGeometry x="-460" y="930" width="120" height="60" as="geometry" />
        </mxCell>
        <mxCell id="0pBIexJM722hcekRti2B-68" value="Medicamento" style="rounded=0;whiteSpace=wrap;html=1;" vertex="1" parent="1">
          <mxGeometry x="150" y="830" width="120" height="60" as="geometry" />
        </mxCell>
        <mxCell id="0pBIexJM722hcekRti2B-69" value="Visita_domiciliar" style="rounded=0;whiteSpace=wrap;html=1;" vertex="1" parent="1">
          <mxGeometry x="510" y="840" width="120" height="60" as="geometry" />
        </mxCell>
        <mxCell id="0pBIexJM722hcekRti2B-70" value="Paciente" style="rounded=0;whiteSpace=wrap;html=1;" vertex="1" parent="1">
          <mxGeometry x="980" y="555" width="120" height="60" as="geometry" />
        </mxCell>
        <mxCell id="0pBIexJM722hcekRti2B-71" value="Campanha" style="rounded=0;whiteSpace=wrap;html=1;" vertex="1" parent="1">
          <mxGeometry x="110" y="510" width="120" height="60" as="geometry" />
        </mxCell>
        <mxCell id="0pBIexJM722hcekRti2B-79" value="Nome" style="ellipse;whiteSpace=wrap;html=1;" vertex="1" parent="1">
          <mxGeometry x="560" y="250" width="100" height="40" as="geometry" />
        </mxCell>
        <mxCell id="0pBIexJM722hcekRti2B-80" value="Codigo" style="ellipse;whiteSpace=wrap;html=1;" vertex="1" parent="1">
          <mxGeometry x="214" y="250" width="100" height="40" as="geometry" />
        </mxCell>
        <mxCell id="0pBIexJM722hcekRti2B-81" value="Tipo" style="ellipse;whiteSpace=wrap;html=1;" vertex="1" parent="1">
          <mxGeometry x="260" y="210" width="100" height="40" as="geometry" />
        </mxCell>
        <mxCell id="0pBIexJM722hcekRti2B-82" value="Estado" style="ellipse;whiteSpace=wrap;html=1;" vertex="1" parent="1">
          <mxGeometry x="1230" y="350" width="100" height="40" as="geometry" />
        </mxCell>
        <mxCell id="0pBIexJM722hcekRti2B-83" value="EndereÃ§o" style="ellipse;whiteSpace=wrap;html=1;" vertex="1" parent="1">
          <mxGeometry x="1120" y="290" width="100" height="40" as="geometry" />
        </mxCell>
        <mxCell id="0pBIexJM722hcekRti2B-84" value="Nome" style="ellipse;whiteSpace=wrap;html=1;" vertex="1" parent="1">
          <mxGeometry x="890" y="280" width="100" height="40" as="geometry" />
        </mxCell>
        <mxCell id="0pBIexJM722hcekRti2B-85" value="CPF" style="ellipse;whiteSpace=wrap;html=1;" vertex="1" parent="1">
          <mxGeometry x="1000" y="290" width="100" height="40" as="geometry" />
        </mxCell>
        <mxCell id="0pBIexJM722hcekRti2B-86" value="CEP" style="ellipse;whiteSpace=wrap;html=1;" vertex="1" parent="1">
          <mxGeometry x="1230" y="300" width="100" height="40" as="geometry" />
        </mxCell>
        <mxCell id="0pBIexJM722hcekRti2B-87" value="equipe_s_fml" style="ellipse;whiteSpace=wrap;html=1;" vertex="1" parent="1">
          <mxGeometry x="90" y="-90" width="100" height="40" as="geometry" />
        </mxCell>
        <mxCell id="0pBIexJM722hcekRti2B-88" value="Areas_cobertas" style="ellipse;whiteSpace=wrap;html=1;" vertex="1" parent="1">
          <mxGeometry x="100" y="-45" width="100" height="40" as="geometry" />
        </mxCell>
        <mxCell id="0pBIexJM722hcekRti2B-89" value="" style="ellipse;whiteSpace=wrap;html=1;" vertex="1" parent="1">
          <mxGeometry x="685" y="-45" width="110" height="50" as="geometry" />
        </mxCell>
        <mxCell id="0pBIexJM722hcekRti2B-90" value="Areas_espec" style="ellipse;whiteSpace=wrap;html=1;" vertex="1" parent="1">
          <mxGeometry x="690" y="-40" width="100" height="40" as="geometry" />
        </mxCell>
        <mxCell id="0pBIexJM722hcekRti2B-91" value="Equipamentos" style="ellipse;whiteSpace=wrap;html=1;" vertex="1" parent="1">
          <mxGeometry x="510" y="-70" width="100" height="40" as="geometry" />
        </mxCell>
        <mxCell id="0pBIexJM722hcekRti2B-92" value="Tipos_exame" style="ellipse;whiteSpace=wrap;html=1;" vertex="1" parent="1">
          <mxGeometry x="510" y="-30" width="100" height="40" as="geometry" />
        </mxCell>
        <mxCell id="0pBIexJM722hcekRti2B-93" value="UTI" style="ellipse;whiteSpace=wrap;html=1;" vertex="1" parent="1">
          <mxGeometry x="340" y="-40" width="100" height="40" as="geometry" />
        </mxCell>
        <mxCell id="0pBIexJM722hcekRti2B-94" value="Salas_cirurgia" style="ellipse;whiteSpace=wrap;html=1;" vertex="1" parent="1">
          <mxGeometry x="314" y="-90" width="100" height="40" as="geometry" />
        </mxCell>
        <mxCell id="0pBIexJM722hcekRti2B-95" value="Num_leitos" style="ellipse;whiteSpace=wrap;html=1;" vertex="1" parent="1">
          <mxGeometry x="240" y="-40" width="100" height="40" as="geometry" />
        </mxCell>
        <mxCell id="0pBIexJM722hcekRti2B-96" value="Capacidade" style="ellipse;whiteSpace=wrap;html=1;" vertex="1" parent="1">
          <mxGeometry x="480" y="170" width="100" height="40" as="geometry" />
        </mxCell>
        <mxCell id="0pBIexJM722hcekRti2B-97" value="Telefone" style="ellipse;whiteSpace=wrap;html=1;" vertex="1" parent="1">
          <mxGeometry x="520" y="210" width="100" height="40" as="geometry" />
        </mxCell>
        <mxCell id="0pBIexJM722hcekRti2B-98" value="Endereco" style="ellipse;whiteSpace=wrap;html=1;" vertex="1" parent="1">
          <mxGeometry x="300" y="170" width="100" height="40" as="geometry" />
        </mxCell>
        <mxCell id="0pBIexJM722hcekRti2B-101" value="Logradouro" style="ellipse;whiteSpace=wrap;html=1;" vertex="1" parent="1">
          <mxGeometry x="1230" y="250" width="100" height="40" as="geometry" />
        </mxCell>
        <mxCell id="0pBIexJM722hcekRti2B-102" value="MatrÃ­cula" style="ellipse;whiteSpace=wrap;html=1;" vertex="1" parent="1">
          <mxGeometry x="900" y="-90" width="100" height="40" as="geometry" />
        </mxCell>
        <mxCell id="0pBIexJM722hcekRti2B-103" value="LotaÃ§Ã£o_prin" style="ellipse;whiteSpace=wrap;html=1;" vertex="1" parent="1">
          <mxGeometry x="850" y="-45" width="100" height="40" as="geometry" />
        </mxCell>
        <mxCell id="0pBIexJM722hcekRti2B-105" value="" style="endArrow=none;html=1;rounded=0;" edge="1" parent="1">
          <mxGeometry width="50" height="50" relative="1" as="geometry">
            <mxPoint x="1109.5" y="120" as="sourcePoint" />
            <mxPoint x="1109.5" y="70" as="targetPoint" />
          </mxGeometry>
        </mxCell>
        <mxCell id="0pBIexJM722hcekRti2B-106" value="CNPJ_contra" style="ellipse;whiteSpace=wrap;html=1;" vertex="1" parent="1">
          <mxGeometry x="1040" y="-40" width="100" height="40" as="geometry" />
        </mxCell>
        <mxCell id="0pBIexJM722hcekRti2B-107" value="Data_inicio" style="ellipse;whiteSpace=wrap;html=1;" vertex="1" parent="1">
          <mxGeometry x="1110" y="-80" width="100" height="40" as="geometry" />
        </mxCell>
        <mxCell id="0pBIexJM722hcekRti2B-108" value="Data_fim" style="ellipse;whiteSpace=wrap;html=1;" vertex="1" parent="1">
          <mxGeometry x="1020" y="-120" width="100" height="40" as="geometry" />
        </mxCell>
        <mxCell id="0pBIexJM722hcekRti2B-109" value="InstituiÃ§Ã£o_ensi" style="ellipse;whiteSpace=wrap;html=1;" vertex="1" parent="1">
          <mxGeometry x="1220" y="-50" width="100" height="40" as="geometry" />
        </mxCell>
        <mxCell id="0pBIexJM722hcekRti2B-110" value="Curso" style="ellipse;whiteSpace=wrap;html=1;" vertex="1" parent="1">
          <mxGeometry x="1280" y="-100" width="100" height="40" as="geometry" />
        </mxCell>
        <mxCell id="0pBIexJM722hcekRti2B-111" value="Prof_responsÃ¡vel" style="ellipse;whiteSpace=wrap;html=1;" vertex="1" parent="1">
          <mxGeometry x="1210" y="-150" width="100" height="40" as="geometry" />
        </mxCell>
        <mxCell id="0pBIexJM722hcekRti2B-113" value="Doenca_cronica" style="rounded=0;whiteSpace=wrap;html=1;" vertex="1" parent="1">
          <mxGeometry x="980" y="730" width="120" height="60" as="geometry" />
        </mxCell>
        <mxCell id="0pBIexJM722hcekRti2B-115" value="Cad_municipal" style="ellipse;whiteSpace=wrap;html=1;" vertex="1" parent="1">
          <mxGeometry x="1000" y="490" width="100" height="40" as="geometry" />
        </mxCell>
        <mxCell id="0pBIexJM722hcekRti2B-116" value="Nome" style="ellipse;whiteSpace=wrap;html=1;" vertex="1" parent="1">
          <mxGeometry x="1110" y="510" width="100" height="40" as="geometry" />
        </mxCell>
        <mxCell id="0pBIexJM722hcekRti2B-117" value="Data_nasc" style="ellipse;whiteSpace=wrap;html=1;" vertex="1" parent="1">
          <mxGeometry x="1110" y="565" width="100" height="40" as="geometry" />
        </mxCell>
        <mxCell id="0pBIexJM722hcekRti2B-120" value="EndereÃ§o" style="ellipse;whiteSpace=wrap;html=1;" vertex="1" parent="1">
          <mxGeometry x="1110" y="620" width="100" height="40" as="geometry" />
        </mxCell>
        <mxCell id="0pBIexJM722hcekRti2B-122" value="Estado" style="ellipse;whiteSpace=wrap;html=1;" vertex="1" parent="1">
          <mxGeometry x="1250" y="670" width="100" height="40" as="geometry" />
        </mxCell>
        <mxCell id="0pBIexJM722hcekRti2B-123" value="CEP" style="ellipse;whiteSpace=wrap;html=1;" vertex="1" parent="1">
          <mxGeometry x="1250" y="620" width="100" height="40" as="geometry" />
        </mxCell>
        <mxCell id="0pBIexJM722hcekRti2B-124" value="Logradouro" style="ellipse;whiteSpace=wrap;html=1;" vertex="1" parent="1">
          <mxGeometry x="1250" y="570" width="100" height="40" as="geometry" />
        </mxCell>
        <mxCell id="0pBIexJM722hcekRti2B-129" value="" style="group" vertex="1" connectable="0" parent="1">
          <mxGeometry x="880" y="500" width="110" height="50" as="geometry" />
        </mxCell>
        <mxCell id="0pBIexJM722hcekRti2B-127" value="" style="ellipse;whiteSpace=wrap;html=1;" vertex="1" parent="0pBIexJM722hcekRti2B-129">
          <mxGeometry width="110" height="50" as="geometry" />
        </mxCell>
        <mxCell id="0pBIexJM722hcekRti2B-128" value="Telefone" style="ellipse;whiteSpace=wrap;html=1;" vertex="1" parent="0pBIexJM722hcekRti2B-129">
          <mxGeometry x="5" y="5" width="100" height="40" as="geometry" />
        </mxCell>
        <mxCell id="0pBIexJM722hcekRti2B-130" value="Id_doenca" style="ellipse;whiteSpace=wrap;html=1;" vertex="1" parent="1">
          <mxGeometry x="990" y="820" width="100" height="40" as="geometry" />
        </mxCell>
        <mxCell id="0pBIexJM722hcekRti2B-131" value="Nome" style="ellipse;whiteSpace=wrap;html=1;" vertex="1" parent="1">
          <mxGeometry x="1110" y="800" width="100" height="40" as="geometry" />
        </mxCell>
        <mxCell id="0pBIexJM722hcekRti2B-133" value="Id_atendimento" style="ellipse;whiteSpace=wrap;html=1;" vertex="1" parent="1">
          <mxGeometry x="-360" y="300" width="100" height="40" as="geometry" />
        </mxCell>
        <mxCell id="0pBIexJM722hcekRti2B-134" value="Data" style="ellipse;whiteSpace=wrap;html=1;" vertex="1" parent="1">
          <mxGeometry x="-250" y="300" width="100" height="40" as="geometry" />
        </mxCell>
        <mxCell id="0pBIexJM722hcekRti2B-135" value="Hora" style="ellipse;whiteSpace=wrap;html=1;" vertex="1" parent="1">
          <mxGeometry x="-230" y="250" width="100" height="40" as="geometry" />
        </mxCell>
        <mxCell id="0pBIexJM722hcekRti2B-136" value="Tipo" style="ellipse;whiteSpace=wrap;html=1;" vertex="1" parent="1">
          <mxGeometry x="-470" y="300" width="100" height="40" as="geometry" />
        </mxCell>
        <mxCell id="0pBIexJM722hcekRti2B-137" value="Descricao" style="ellipse;whiteSpace=wrap;html=1;" vertex="1" parent="1">
          <mxGeometry x="-500" y="250" width="100" height="40" as="geometry" />
        </mxCell>
        <mxCell id="0pBIexJM722hcekRti2B-138" value="Medicamentos" style="ellipse;whiteSpace=wrap;html=1;" vertex="1" parent="1">
          <mxGeometry x="-620" y="-60" width="100" height="40" as="geometry" />
        </mxCell>
        <mxCell id="0pBIexJM722hcekRti2B-139" value="Dosagem" style="ellipse;whiteSpace=wrap;html=1;shadow=0;" vertex="1" parent="1">
          <mxGeometry x="-510" y="-80" width="100" height="40" as="geometry" />
        </mxCell>
        <mxCell id="0pBIexJM722hcekRti2B-140" value="Destino" style="ellipse;whiteSpace=wrap;html=1;" vertex="1" parent="1">
          <mxGeometry x="-360" y="-60" width="100" height="40" as="geometry" />
        </mxCell>
        <mxCell id="0pBIexJM722hcekRti2B-141" value="Tipo_exame" style="ellipse;whiteSpace=wrap;html=1;" vertex="1" parent="1">
          <mxGeometry x="-230" y="-60" width="100" height="40" as="geometry" />
        </mxCell>
        <mxCell id="0pBIexJM722hcekRti2B-142" value="Id_campanha" style="ellipse;whiteSpace=wrap;html=1;" vertex="1" parent="1">
          <mxGeometry x="120" y="605" width="100" height="40" as="geometry" />
        </mxCell>
        <mxCell id="0pBIexJM722hcekRti2B-143" value="Nome" style="ellipse;whiteSpace=wrap;html=1;" vertex="1" parent="1">
          <mxGeometry x="230" y="605" width="100" height="40" as="geometry" />
        </mxCell>
        <mxCell id="0pBIexJM722hcekRti2B-144" value="Descricao" style="ellipse;whiteSpace=wrap;html=1;" vertex="1" parent="1">
          <mxGeometry x="10" y="605" width="100" height="40" as="geometry" />
        </mxCell>
        <mxCell id="0pBIexJM722hcekRti2B-145" value="Tipo" style="ellipse;whiteSpace=wrap;html=1;" vertex="1" parent="1">
          <mxGeometry x="-10" y="555" width="100" height="40" as="geometry" />
        </mxCell>
        <mxCell id="0pBIexJM722hcekRti2B-146" value="Data_inicio" style="ellipse;whiteSpace=wrap;html=1;" vertex="1" parent="1">
          <mxGeometry x="250" y="550" width="100" height="40" as="geometry" />
        </mxCell>
        <mxCell id="0pBIexJM722hcekRti2B-147" value="Data_fim" style="ellipse;whiteSpace=wrap;html=1;" vertex="1" parent="1">
          <mxGeometry x="250" y="490" width="100" height="40" as="geometry" />
        </mxCell>
        <mxCell id="0pBIexJM722hcekRti2B-148" value="Id_visita" style="ellipse;whiteSpace=wrap;html=1;" vertex="1" parent="1">
          <mxGeometry x="520" y="920" width="100" height="40" as="geometry" />
        </mxCell>
        <mxCell id="0pBIexJM722hcekRti2B-149" value="Data" style="ellipse;whiteSpace=wrap;html=1;" vertex="1" parent="1">
          <mxGeometry x="630" y="920" width="100" height="40" as="geometry" />
        </mxCell>
        <mxCell id="0pBIexJM722hcekRti2B-150" value="Horario" style="ellipse;whiteSpace=wrap;html=1;" vertex="1" parent="1">
          <mxGeometry x="656" y="870" width="100" height="40" as="geometry" />
        </mxCell>
        <mxCell id="0pBIexJM722hcekRti2B-151" value="Objetivo" style="ellipse;whiteSpace=wrap;html=1;" vertex="1" parent="1">
          <mxGeometry x="656" y="820" width="100" height="40" as="geometry" />
        </mxCell>
        <mxCell id="0pBIexJM722hcekRti2B-152" value="Observacoes" style="ellipse;whiteSpace=wrap;html=1;" vertex="1" parent="1">
          <mxGeometry x="576" y="780" width="100" height="40" as="geometry" />
        </mxCell>
        <mxCell id="0pBIexJM722hcekRti2B-153" value="Id_medicamento" style="ellipse;whiteSpace=wrap;html=1;" vertex="1" parent="1">
          <mxGeometry x="170" y="920" width="100" height="40" as="geometry" />
        </mxCell>
        <mxCell id="0pBIexJM722hcekRti2B-154" value="Nome" style="ellipse;whiteSpace=wrap;html=1;" vertex="1" parent="1">
          <mxGeometry x="280" y="910" width="100" height="40" as="geometry" />
        </mxCell>
        <mxCell id="0pBIexJM722hcekRti2B-155" value="Principio_ativo" style="ellipse;whiteSpace=wrap;html=1;" vertex="1" parent="1">
          <mxGeometry x="310" y="856" width="100" height="40" as="geometry" />
        </mxCell>
        <mxCell id="0pBIexJM722hcekRti2B-156" value="Concentracao" style="ellipse;whiteSpace=wrap;html=1;" vertex="1" parent="1">
          <mxGeometry x="300" y="800" width="100" height="40" as="geometry" />
        </mxCell>
        <mxCell id="0pBIexJM722hcekRti2B-157" value="Forma" style="ellipse;whiteSpace=wrap;html=1;" vertex="1" parent="1">
          <mxGeometry x="50" y="910" width="100" height="40" as="geometry" />
        </mxCell>
        <mxCell id="0pBIexJM722hcekRti2B-159" value="Fabricante" style="ellipse;whiteSpace=wrap;html=1;" vertex="1" parent="1">
          <mxGeometry x="10" y="860" width="100" height="40" as="geometry" />
        </mxCell>
        <mxCell id="0pBIexJM722hcekRti2B-160" value="Id" style="ellipse;whiteSpace=wrap;html=1;" vertex="1" parent="1">
          <mxGeometry x="-450" y="1020" width="100" height="40" as="geometry" />
        </mxCell>
        <mxCell id="0pBIexJM722hcekRti2B-161" value="Estoque" style="rounded=0;whiteSpace=wrap;html=1;" vertex="1" parent="1">
          <mxGeometry x="160" y="1040" width="120" height="60" as="geometry" />
        </mxCell>
        <mxCell id="0pBIexJM722hcekRti2B-162" value="Quantidade" style="ellipse;whiteSpace=wrap;html=1;" vertex="1" parent="1">
          <mxGeometry x="170" y="1120" width="100" height="40" as="geometry" />
        </mxCell>
        <mxCell id="0pBIexJM722hcekRti2B-163" value="Entrega_med" style="rounded=0;whiteSpace=wrap;html=1;" vertex="1" parent="1">
          <mxGeometry x="-60" y="1040" width="120" height="60" as="geometry" />
        </mxCell>
        <mxCell id="0pBIexJM722hcekRti2B-164" value="Data" style="ellipse;whiteSpace=wrap;html=1;" vertex="1" parent="1">
          <mxGeometry x="-50" y="1120" width="100" height="40" as="geometry" />
        </mxCell>
        <mxCell id="0pBIexJM722hcekRti2B-165" value="Quantidade" style="ellipse;whiteSpace=wrap;html=1;" vertex="1" parent="1">
          <mxGeometry x="-180" y="1110" width="100" height="40" as="geometry" />
        </mxCell>
        <mxCell id="0pBIexJM722hcekRti2B-166" value="Nome" style="ellipse;whiteSpace=wrap;html=1;" vertex="1" parent="1">
          <mxGeometry x="-330" y="1010" width="100" height="40" as="geometry" />
        </mxCell>
        <mxCell id="0pBIexJM722hcekRti2B-167" value="Descricao" style="ellipse;whiteSpace=wrap;html=1;" vertex="1" parent="1">
          <mxGeometry x="-320" y="950" width="100" height="40" as="geometry" />
        </mxCell>
        <mxCell id="0pBIexJM722hcekRti2B-168" value="Criterios" style="ellipse;whiteSpace=wrap;html=1;" vertex="1" parent="1">
          <mxGeometry x="-570" y="1000" width="100" height="40" as="geometry" />
        </mxCell>
      </root>
    </mxGraphModel>
  </diagram>
</mxfile>
